<svg width="34" height="34" viewBox="0 0 34 34" fill="none" xmlns="http://www.w3.org/2000/svg">
<rect x="1" y="1" width="32" height="32" rx="6" fill="#AD0003"/>
<path fill-rule="evenodd" clip-rule="evenodd" d="M12.4796 24.7621V26.2791C12.3498 26.227 12.2209 26.1717 12.0931 26.1131C10.9682 25.5978 9.94612 24.8425 9.08514 23.8903C8.22706 22.9413 7.54583 21.8153 7.07996 20.5762V24.7271C6.93943 24.5895 6.80253 24.4471 6.66949 24.3C5.80852 23.3478 5.12558 22.2174 4.6596 20.9733C4.19366 19.7292 3.95383 18.3958 3.95383 17.0492C3.95383 15.7026 4.19366 14.3692 4.6596 13.1251C5.12558 11.881 5.80852 10.7506 6.66949 9.79845C6.80253 9.65131 6.93943 9.50888 7.07996 9.37129V12.7029C7.54583 11.4638 8.22706 10.3378 9.08514 9.38878C9.94612 8.43659 10.9682 7.68128 12.0931 7.16597C12.221 7.10741 12.3498 7.05207 12.4796 7V8.83124C13.8442 7.83179 15.4806 7.24975 17.2399 7.24975C18.9839 7.24975 20.6072 7.82175 21.9646 8.80536V7C22.0944 7.05208 22.2233 7.10741 22.3511 7.16596C23.476 7.68128 24.4982 8.4366 25.3591 9.38878C26.1956 10.3139 26.8641 11.4073 27.3288 12.6097V9.37129C27.4693 9.50887 27.6062 9.65132 27.7392 9.79846C28.6002 10.7506 29.2832 11.8811 29.7491 13.1251C30.2151 14.3692 30.4549 15.7026 30.4549 17.0492C30.4549 18.3958 30.2151 19.7292 29.7491 20.9733C29.2832 22.2174 28.6002 23.3478 27.7392 24.3C27.6062 24.4471 27.4693 24.5896 27.3288 24.7271V20.6694C26.8641 21.8718 26.1956 22.9652 25.3591 23.8903C24.4982 24.8425 23.476 25.5978 22.3511 26.1131C22.2233 26.1717 22.0944 26.227 21.9646 26.2791V24.788C20.6072 25.7716 18.9839 26.3436 17.2399 26.3436C15.4806 26.3436 13.8442 25.7616 12.4796 24.7621ZM2.57757 13.4254C2.76827 12.9163 3.00338 12.4304 3.27891 11.9743V21.299C3.00338 20.843 2.76827 20.3571 2.57757 19.8479C2.19626 18.8298 2 17.7386 2 16.6367C2 15.5347 2.19626 14.4435 2.57757 13.4254ZM31.1299 11.9743C31.4054 12.4304 31.6405 12.9163 31.8312 13.4254C32.2125 14.4435 32.4088 15.5347 32.4088 16.6367C32.4088 17.7386 32.2125 18.8298 31.8312 19.8479C31.6405 20.3571 31.4054 20.843 31.1299 21.299V11.9743ZM9.54356 17.3524C9.54356 16.3217 10.3791 15.4862 11.4097 15.4862H11.5276C12.5583 15.4862 13.3938 16.3217 13.3938 17.3524C13.3938 18.383 12.5583 19.2185 11.5276 19.2185H11.4097C10.3791 19.2185 9.54356 18.383 9.54356 17.3524ZM22.7247 15.2505C21.6941 15.2505 20.8585 16.086 20.8585 17.1167C20.8585 18.1473 21.6941 18.9828 22.7247 18.9828H22.8426C23.8732 18.9828 24.7088 18.1473 24.7088 17.1167C24.7088 16.086 23.8732 15.2505 22.8426 15.2505H22.7247Z" fill="#F4E0B9"/>
</svg>
